<svg xmlns="http://www.w3.org/2000/svg" width="1280" height="720" viewBox="0 0 1280 720" role="img" aria-labelledby="title desc">
  <title id="title">AI page analysis product mock</title>
  <desc id="desc">A product mock with URL input, scoring, issue list, and backlog columns.</desc>
  <rect width="1280" height="720" fill="#f8fafc"/>
  <rect x="70" y="58" width="1140" height="604" rx="28" fill="#ffffff" stroke="#d9e2ec" stroke-width="2"/>
  <rect x="110" y="102" width="1060" height="82" rx="18" fill="#0f172a"/>
  <text x="142" y="150" fill="#f8fafc" font-family="Arial, sans-serif" font-size="28" font-weight="700">AI Page Analysis</text>
  <text x="820" y="150" fill="#93c5fd" font-family="Arial, sans-serif" font-size="18">Product mock</text>
  <rect x="110" y="220" width="500" height="70" rx="16" fill="#eef6ff" stroke="#bfdbfe"/>
  <text x="142" y="262" fill="#1e3a8a" font-family="Arial, sans-serif" font-size="20" font-weight="700">https://site.example/page</text>
  <rect x="632" y="220" width="220" height="70" rx="16" fill="#dbeafe"/>
  <text x="676" y="262" fill="#1d4ed8" font-family="Arial, sans-serif" font-size="20" font-weight="700">Analyze</text>
  <rect x="110" y="330" width="230" height="210" rx="20" fill="#f8fafc" stroke="#d9e2ec"/>
  <text x="142" y="376" fill="#0f172a" font-family="Arial, sans-serif" font-size="22" font-weight="700">Scores</text>
  <circle cx="178" cy="444" r="46" fill="#dcfce7" stroke="#22c55e" stroke-width="12"/>
  <text x="157" y="454" fill="#166534" font-family="Arial, sans-serif" font-size="25" font-weight="700">82</text>
  <rect x="374" y="330" width="350" height="210" rx="20" fill="#fff7ed" stroke="#fed7aa"/>
  <text x="408" y="376" fill="#7c2d12" font-family="Arial, sans-serif" font-size="22" font-weight="700">Issues</text>
  <rect x="408" y="410" width="250" height="18" rx="9" fill="#fb923c"/>
  <rect x="408" y="448" width="190" height="18" rx="9" fill="#fdba74"/>
  <rect x="408" y="486" width="270" height="18" rx="9" fill="#fed7aa"/>
  <rect x="758" y="330" width="412" height="210" rx="20" fill="#f0fdf4" stroke="#bbf7d0"/>
  <text x="792" y="376" fill="#14532d" font-family="Arial, sans-serif" font-size="22" font-weight="700">Backlog</text>
  <rect x="792" y="410" width="310" height="32" rx="10" fill="#86efac"/>
  <rect x="792" y="460" width="250" height="32" rx="10" fill="#bbf7d0"/>
  <rect x="792" y="510" width="285" height="32" rx="10" fill="#dcfce7"/>
  <rect x="110" y="580" width="1060" height="32" rx="16" fill="#e2e8f0"/>
  <text x="142" y="602" fill="#475569" font-family="Arial, sans-serif" font-size="16">Mock only: live crawling and model integration are not enabled in D6.</text>
</svg>
